# xmcd
#
# Track frame offsets:
#	150
#	13759
#	30387
#	52295
#	71415
#	94832
#	111787
#	133775
#	149280
#	171632
#	184425
#	201675
#
# Disc length: 2880 seconds
#
# Revision: 1
# Processed by: cddbd v1.5.1PL0 Copyright (c) Steve Scherf et al.
# Submitted via: audiograbber 1.83.01
#
DISCID=bf0b3e0c
DTITLE=Various Artist - Blue Highways - The Ultimate Americana Music Fest
DYEAR=2000
DGENRE=Misc Country
TTITLE0=Damon Bramblett - Tear Him Down
TTITLE1=The Amazing Rythym Aces - Love's On The Way
TTITLE2=The Countrypolitians - Basic Information
TTITLE3=Terri Hendrix - Gravity
TTITLE4=Ray Wylie Hubbard - Last Train To Amsterdam
TTITLE5=Lynn Miles - Sunset Boulevard
TTITLE6=Richard Buckner - Emma
TTITLE7=Guy Clark - Men Will Be Boys
TTITLE8=Mount Pilot - Patience
TTITLE9=Terry allen - Red Leg Boy
TTITLE10=Steve Riley and The Mamou Playboys - All For The Better
TTITLE11=Wayne 'The Train' Hancock - Wild, Free and Reckless
EXTD=made in Holland
EXTT0=
EXTT1=
EXTT2=
EXTT3=
EXTT4=
EXTT5=
EXTT6=
EXTT7=
EXTT8=
EXTT9=
EXTT10=
EXTT11=
PLAYORDER=
